ffmpeg started on 2026-04-07 at 22:26:28
Report written to "ffmpeg-20260407-222628.log"
Log level: 32
Command line:
/opt/homebrew/bin/ffmpeg -y -loglevel repeat+info -i file:/Users/sudiptabag/Downloads/test3//Watches_of_Famous_Indian_Personalities_-_Rolex_Casio_Apple_watch_Best_luxury_watches_India.f134.mp4 -i file:/Users/sudiptabag/Downloads/test3//Watches_of_Famous_Indian_Personalities_-_Rolex_Casio_Apple_watch_Best_luxury_watches_India.f140.m4a -c copy -map 0:v:0 -map 1:a:0 -movflags +faststart -c:v h264_videotoolbox -b:v 8M file:/Users/sudiptabag/Downloads/test3//Watches_of_Famous_Indian_Personalities_-_Rolex_Casio_Apple_watch_Best_luxury_watches_India.temp.mp4
ffmpeg version 8.1 Copyright (c) 2000-2026 the FFmpeg developers
  built with Apple clang version 21.0.0 (clang-2100.0.123.102)
  configuration: --prefix=/opt/homebrew/Cellar/ffmpeg/8.1 --enable-shared --enable-pthreads --enable-version3 --cc=clang --host-cflags= --host-ldflags= --enable-ffplay --enable-gpl --enable-libsvtav1 --enable-libopus --enable-libx264 --enable-libmp3lame --enable-libdav1d --enable-libvmaf --enable-libvpx --enable-libx265 --enable-openssl --enable-videotoolbox --enable-audiotoolbox --enable-neon
  libavutil      60. 26.100 / 60. 26.100
  libavcodec     62. 28.100 / 62. 28.100
  libavformat    62. 12.100 / 62. 12.100
  libavdevice    62.  3.100 / 62.  3.100
  libavfilter    11. 14.100 / 11. 14.100
  libswscale      9.  5.100 /  9.  5.100
  libswresample   6.  3.100 /  6.  3.100
Input #0, mov,mp4,m4a,3gp,3g2,mj2, from 'file:/Users/sudiptabag/Downloads/test3//Watches_of_Famous_Indian_Personalities_-_Rolex_Casio_Apple_watch_Best_luxury_watches_India.f134.mp4':
  Metadata:
    major_brand     : dash
    minor_version   : 0
    compatible_brands: iso6avc1mp41
    creation_time   : 2025-01-16T08:21:48.000000Z
  Duration: 00:06:58.73, start: 0.000000, bitrate: 149 kb/s
  Stream #0:0[0x1](und): Video: h264 (Main) (avc1 / 0x31637661), yuv420p(tv, bt709, progressive), 640x360 [SAR 1:1 DAR 16:9], 108 kb/s, 30 fps, 30 tbr, 15360 tbn (default)
    Metadata:
      creation_time   : 2025-01-16T08:21:48.000000Z
      handler_name    : ISO Media file produced by Google Inc.
Input #1, mov,mp4,m4a,3gp,3g2,mj2, from 'file:/Users/sudiptabag/Downloads/test3//Watches_of_Famous_Indian_Personalities_-_Rolex_Casio_Apple_watch_Best_luxury_watches_India.f140.m4a':
  Metadata:
    major_brand     : dash
    minor_version   : 0
    compatible_brands: iso6mp41
    creation_time   : 2025-01-16T08:07:22.000000Z
    encoder         : Google
  Duration: 00:06:58.82, start: 0.000000, bitrate: 129 kb/s
  Stream #1:0[0x1](eng): Audio: aac (LC) (mp4a / 0x6134706D), 44100 Hz, stereo, fltp, 128 kb/s (default)
    Metadata:
      creation_time   : 2025-01-16T08:07:22.000000Z
      handler_name    : ISO Media file produced by Google Inc.
[vost#0:0 @ 0x81f098000] Multiple -codec/-c/-acodec/-vcodec/-scodec/-dcodec options specified for stream 0, only the last option '-codec:v h264_videotoolbox' will be used.
Stream mapping:
  Stream #0:0 -> #0:0 (h264 (native) -> h264 (h264_videotoolbox))
  Stream #1:0 -> #0:1 (copy)
Press [q] to stop, [?] for help
Output #0, mp4, to 'file:/Users/sudiptabag/Downloads/test3//Watches_of_Famous_Indian_Personalities_-_Rolex_Casio_Apple_watch_Best_luxury_watches_India.temp.mp4':
  Metadata:
    major_brand     : dash
    minor_version   : 0
    compatible_brands: iso6avc1mp41
    encoder         : Lavf62.12.100
  Stream #0:0(und): Video: h264 (avc1 / 0x31637661), yuv420p(tv, bt709, progressive), 640x360 [SAR 1:1 DAR 16:9], q=2-31, 8000 kb/s, 30 fps, 15360 tbn (default)
    Metadata:
      encoder         : Lavc62.28.100 h264_videotoolbox
      creation_time   : 2025-01-16T08:21:48.000000Z
      handler_name    : ISO Media file produced by Google Inc.
  Stream #0:1(eng): Audio: aac (LC) (mp4a / 0x6134706D), 44100 Hz, stereo, fltp, 128 kb/s (default)
    Metadata:
      creation_time   : 2025-01-16T08:07:22.000000Z
      handler_name    : ISO Media file produced by Google Inc.
frame=  324 fps=0.0 q=-0.0 size=   10752KiB time=00:00:10.76 bitrate=8180.9kbits/s speed=21.5x elapsed=0:00:00.50    frame=  725 fps=724 q=-0.0 size=   22016KiB time=00:00:24.13 bitrate=7473.3kbits/s speed=24.1x elapsed=0:00:01.00    frame= 1162 fps=771 q=-0.0 size=   37120KiB time=00:00:38.70 bitrate=7857.6kbits/s speed=25.7x elapsed=0:00:01.50    frame= 1596 fps=793 q=-0.0 size=   50688KiB time=00:00:53.16 bitrate=7810.1kbits/s speed=26.4x elapsed=0:00:02.01    frame= 2036 fps=810 q=-0.0 size=   55296KiB time=00:01:07.83 bitrate=6677.9kbits/s speed=  27x elapsed=0:00:02.51    frame= 2426 fps=804 q=-0.0 size=   68864KiB time=00:01:20.83 bitrate=6979.0kbits/s speed=26.8x elapsed=0:00:03.01    frame= 2801 fps=795 q=-0.0 size=   86784KiB time=00:01:33.33 bitrate=7617.2kbits/s speed=26.5x elapsed=0:00:03.52    frame= 3194 fps=794 q=-0.0 size=  103424KiB time=00:01:46.43 bitrate=7960.4kbits/s speed=26.5x elapsed=0:00:04.02    frame= 3640 fps=805 q=-0.0 size=  118784KiB time=00:02:01.30 bitrate=8022.1kbits/s speed=26.8x elapsed=0:00:04.52    frame= 4068 fps=809 q=-0.0 size=  133888KiB time=00:02:15.56 bitrate=8090.6kbits/s speed=  27x elapsed=0:00:05.02    frame= 4510 fps=815 q=-0.0 size=  149504KiB time=00:02:30.30 bitrate=8148.6kbits/s speed=27.2x elapsed=0:00:05.53    frame= 4969 fps=824 q=-0.0 size=  162560KiB time=00:02:45.60 bitrate=8041.6kbits/s speed=27.4x elapsed=0:00:06.03    frame= 5413 fps=828 q=-0.0 size=  178688KiB time=00:03:00.40 bitrate=8114.3kbits/s speed=27.6x elapsed=0:00:06.53    frame= 5862 fps=833 q=-0.0 size=  194048KiB time=00:03:15.36 bitrate=8136.7kbits/s speed=27.8x elapsed=0:00:07.03    frame= 6315 fps=837 q=-0.0 size=  209152KiB time=00:03:30.46 bitrate=8140.8kbits/s speed=27.9x elapsed=0:00:07.54    frame= 6755 fps=840 q=-0.0 size=  223232KiB time=00:03:45.13 bitrate=8122.8kbits/s speed=  28x elapsed=0:00:08.04    frame= 7216 fps=845 q=-0.0 size=  236800KiB time=00:04:00.50 bitrate=8066.0kbits/s speed=28.2x elapsed=0:00:08.54    frame= 7613 fps=842 q=-0.0 size=  251648KiB time=00:04:13.73 bitrate=8124.7kbits/s speed=  28x elapsed=0:00:09.04    frame= 8073 fps=845 q=-0.0 size=  266240KiB time=00:04:29.06 bitrate=8105.9kbits/s speed=28.2x elapsed=0:00:09.55    frame= 8539 fps=849 q=-0.0 size=  279552KiB time=00:04:44.60 bitrate=8046.7kbits/s speed=28.3x elapsed=0:00:10.05    frame= 8963 fps=849 q=-0.0 size=  296448KiB time=00:04:58.73 bitrate=8129.3kbits/s speed=28.3x elapsed=0:00:10.56    frame= 9425 fps=852 q=-0.0 size=  311552KiB time=00:05:14.13 bitrate=8124.7kbits/s speed=28.4x elapsed=0:00:11.06    frame= 9877 fps=854 q=-0.0 size=  326656KiB time=00:05:29.20 bitrate=8128.7kbits/s speed=28.4x elapsed=0:00:11.57    frame=10327 fps=855 q=-0.0 size=  341760KiB time=00:05:44.20 bitrate=8133.9kbits/s speed=28.5x elapsed=0:00:12.07    frame=10788 fps=858 q=-0.0 size=  355840KiB time=00:05:59.56 bitrate=8107.1kbits/s speed=28.6x elapsed=0:00:12.57    frame=11228 fps=858 q=-0.0 size=  371200KiB time=00:06:14.23 bitrate=8125.6kbits/s speed=28.6x elapsed=0:00:13.08    frame=11675 fps=859 q=-0.0 size=  386560KiB time=00:06:29.13 bitrate=8137.8kbits/s speed=28.6x elapsed=0:00:13.58    frame=12119 fps=860 q=-0.0 size=  401408KiB time=00:06:43.93 bitrate=8140.8kbits/s speed=28.7x elapsed=0:00:14.08    [mp4 @ 0x81f027980] Starting second pass: moving the moov atom to the beginning of the file
[out#0/mp4 @ 0x81f070480] video:405468KiB audio:6544KiB subtitle:0KiB other streams:0KiB global headers:0KiB muxing overhead: 0.085296%
frame=12562 fps=841 q=-0.0 Lsize=  412364KiB time=00:06:58.70 bitrate=8068.0kbits/s speed=  28x elapsed=0:00:14.93    
